<svg id="Solid_Gradient" height="512" viewBox="0 0 512 512" width="512" xmlns="http://www.w3.org/2000/svg" xmlns:xlink="http://www.w3.org/1999/xlink" data-name="Solid Gradient"><linearGradient id="linear-gradient" gradientUnits="userSpaceOnUse" x1="272" x2="272" y1="-30.379" y2="499.045"><stop offset="0" stop-color="#ff91d2"/><stop offset=".262" stop-color="#f68bd9"/><stop offset=".688" stop-color="#de79ed"/><stop offset=".999" stop-color="#c86aff"/></linearGradient><linearGradient id="linear-gradient-2" x1="240" x2="240" xlink:href="#linear-gradient" y1="-30.379" y2="499.045"/><linearGradient id="linear-gradient-3" x1="248.652" x2="248.652" xlink:href="#linear-gradient" y1="-30.379" y2="499.045"/><linearGradient id="linear-gradient-4" x1="208" x2="208" xlink:href="#linear-gradient" y1="-30.379" y2="499.045"/><linearGradient id="linear-gradient-5" x1="256" x2="256" xlink:href="#linear-gradient" y1="-30.379" y2="499.045"/><linearGradient id="linear-gradient-6" x1="304" x2="304" xlink:href="#linear-gradient" y1="-30.379" y2="499.045"/><g><path d="m271.522 191.97c.16.009.316.03.478.03a8.009 8.009 0 0 0 8-8v-48a8 8 0 0 0 -16 0v40a8 8 0 0 1 8 8v2a38.038 38.038 0 0 1 -.478 5.97z" fill="url(#linear-gradient)"/><path d="m240 112a8.009 8.009 0 0 0 -8 8v56h16v-56a8.009 8.009 0 0 0 -8-8z" fill="url(#linear-gradient-2)"/><path d="m304 224a24.039 24.039 0 0 1 -23.154-17.7 23.883 23.883 0 0 1 -15.276.814 38.059 38.059 0 0 1 -25.334 16.371l8.863 11.079a68.249 68.249 0 0 1 14.9 42.48v2.956h-15.999v-2.953a52.192 52.192 0 0 0 -11.4-32.485l-18.847-23.562a8 8 0 0 1 6.247-13h10a22.038 22.038 0 0 0 21.168-16h-54.768a12.033 12.033 0 0 0 -11.767 9.646l-2.957 14.784a11.971 11.971 0 0 0 2.346 9.785l34.11 40.642a8 8 0 0 1 1.868 5.143v51.95a128.445 128.445 0 0 0 64 0v-43.95a8 8 0 0 1 .647-3.151l23.22-54.18a23.9 23.9 0 0 1 -7.867 1.331z" fill="url(#linear-gradient-3)"/><path d="m216 176v-40a8 8 0 0 0 -16 0v40.018c.133 0 .263-.018.4-.018z" fill="url(#linear-gradient-4)"/><path d="m256 32c-92.636 0-168 75.364-168 168a168.028 168.028 0 0 0 145.081 166.438 8 8 0 0 1 6.919 7.926v41.636a8 8 0 0 1 -8 8h-32v24h32a8 8 0 0 1 8 8v24h32v-24a8 8 0 0 1 8-8h32v-24h-32a8 8 0 0 1 -8-8v-41.636a8 8 0 0 1 6.919-7.926 168.028 168.028 0 0 0 145.081-166.438c0-92.636-75.364-168-168-168zm0 312c-79.4 0-144-64.6-144-144s64.6-144 144-144 144 64.6 144 144-64.6 144-144 144z" fill="url(#linear-gradient-5)"/><path d="m312 200v-48a8 8 0 0 0 -16 0v48a8 8 0 0 0 16 0z" fill="url(#linear-gradient-6)"/><path d="m256 72a128 128 0 0 0 -48 246.652v-43.74l-32.306-38.492c-.04-.048-.08-.1-.119-.145a27.938 27.938 0 0 1 -5.592-22.983l2.957-14.783a27.969 27.969 0 0 1 11.06-17.155v-45.354a23.985 23.985 0 0 1 32.846-22.3 24 24 0 0 1 46.308 0 23.977 23.977 0 0 1 32 16 23.985 23.985 0 0 1 32.846 22.3v72a7.993 7.993 0 0 1 -.647 3.151l-23.353 54.491v37.01a128 128 0 0 0 -48-246.652z" fill="url(#linear-gradient-5)"/></g></svg>