<?xml version="1.0"?>
<svg xmlns="http://www.w3.org/2000/svg" xmlns:xlink="http://www.w3.org/1999/xlink" xmlns:svgjs="http://svgjs.com/svgjs" version="1.1" width="512" height="512" x="0" y="0" viewBox="0 0 448 448" style="enable-background:new 0 0 512 512" xml:space="preserve" class=""><g><path xmlns="http://www.w3.org/2000/svg" d="m152 240c0 8.835938-7.164062 16-16 16s-16-7.164062-16-16 7.164062-16 16-16 16 7.164062 16 16zm0 0" fill="#800020" data-original="#000000" style="" class=""/><path xmlns="http://www.w3.org/2000/svg" d="m200 378.398438v-12.773438l-70.609375 82.375h10.929687zm0 0" fill="#800020" data-original="#000000" style="" class=""/><path xmlns="http://www.w3.org/2000/svg" d="m0 0h448v16h-448zm0 0" fill="#800020" data-original="#000000" style="" class=""/><path xmlns="http://www.w3.org/2000/svg" d="m328 80c0 8.835938-7.164062 16-16 16s-16-7.164062-16-16 7.164062-16 16-16 16 7.164062 16 16zm0 0" fill="#800020" data-original="#000000" style="" class=""/><path xmlns="http://www.w3.org/2000/svg" d="m0 320h448v16h-448zm0 0" fill="#800020" data-original="#000000" style="" class=""/><path xmlns="http://www.w3.org/2000/svg" d="m424 304v-272h-400v272zm-145.375-68.6875-11.3125 11.3125-11.3125-11.3125-11.3125 11.3125-11.3125-11.3125 11.3125-11.3125-11.3125-11.3125 11.3125-11.3125 11.3125 11.3125 11.3125-11.3125 11.3125 11.3125-11.3125 11.3125zm113.375 44.6875h-64v-16h64zm-64-24v-16h16v16zm64 0h-32v-16h32zm-32-99.3125 11.3125-11.3125 11.3125 11.3125-11.3125 11.3125 11.3125 11.3125-11.3125 11.3125-11.3125-11.3125-11.3125 11.3125-11.3125-11.3125 11.3125-11.3125-11.3125-11.3125 11.3125-11.3125zm-198.625-72 11.3125-11.3125 11.3125 11.3125 11.3125-11.3125 11.3125 11.3125-11.3125 11.3125 11.3125 11.3125-11.3125 11.3125-11.3125-11.3125-11.3125 11.3125-11.3125-11.3125 11.3125-11.3125zm-33.375 124.449219v-1.136719c.039062-30.910156 25.089844-55.960938 56-56h80c22.082031-.027344 39.972656-17.917969 40-40v-1.136719c-15.601562-4.027343-25.777344-19.03125-23.746094-35.015625s15.632813-27.96875 31.746094-27.96875 29.714844 11.984375 31.746094 27.96875-8.144532 30.988282-23.746094 35.015625v1.136719c-.039062 30.910156-25.089844 55.960938-56 56h-80c-22.082031.027344-39.972656 17.917969-40 40v1.136719c15.601562 4.027343 25.777344 19.03125 23.746094 35.015625s-15.632813 27.96875-31.746094 27.96875-29.714844-11.984375-31.746094-27.96875 8.144532-30.988282 23.746094-35.015625zm-17.375-53.824219-11.3125 11.3125-11.3125-11.3125-11.3125 11.3125-11.3125-11.3125 11.3125-11.3125-11.3125-11.3125 11.3125-11.3125 11.3125 11.3125 11.3125-11.3125 11.3125 11.3125-11.3125 11.3125zm-54.625-107.3125h48v16h-48zm0 24h48v16h-48zm0 0" fill="#800020" data-original="#000000" style="" class=""/><path xmlns="http://www.w3.org/2000/svg" d="m318.609375 448-70.609375-82.375v12.773438l59.679688 69.601562zm0 0" fill="#800020" data-original="#000000" style="" class=""/><path xmlns="http://www.w3.org/2000/svg" d="m216 352h16v96h-16zm0 0" fill="#800020" data-original="#000000" style="" class=""/></g></svg>
